<mxfile host="Electron" agent="Mozilla/5.0 (Windows NT 10.0; Win64; x64) AppleWebKit/537.36 (KHTML, like Gecko) draw.io/26.0.9 Chrome/128.0.6613.186 Electron/32.2.5 Safari/537.36" version="26.0.9">
  <diagram name="Page-1" id="vEpFmKBxj-pp8tvV2Nzk">
    <mxGraphModel dx="1120" dy="2732" grid="1" gridSize="10" guides="1" tooltips="1" connect="1" arrows="1" fold="1" page="1" pageScale="1" pageWidth="850" pageHeight="1100" math="0" shadow="0">
      <root>
        <mxCell id="0" />
        <mxCell id="1" parent="0" />
        <mxCell id="1i18aTrX-dGXvnj4uuKa-37" value="" style="edgeStyle=orthogonalEdgeStyle;rounded=0;orthogonalLoop=1;jettySize=auto;html=1;" parent="1" source="1i18aTrX-dGXvnj4uuKa-9" target="1i18aTrX-dGXvnj4uuKa-12" edge="1">
          <mxGeometry relative="1" as="geometry" />
        </mxCell>
        <mxCell id="1i18aTrX-dGXvnj4uuKa-3" value="REGISTER" style="ellipse;whiteSpace=wrap;html=1;fillColor=#d5e8d4;strokeColor=#82b366;" parent="1" vertex="1">
          <mxGeometry x="430" y="-1320" width="140" height="30" as="geometry" />
        </mxCell>
        <mxCell id="1i18aTrX-dGXvnj4uuKa-4" value="student-user" style="shape=umlActor;verticalLabelPosition=bottom;verticalAlign=top;html=1;outlineConnect=0;" parent="1" vertex="1">
          <mxGeometry x="178" y="-1260" width="30" height="60" as="geometry" />
        </mxCell>
        <mxCell id="1i18aTrX-dGXvnj4uuKa-5" value="&lt;b&gt;PRIMARY ACTORS&lt;/b&gt;" style="text;html=1;align=center;verticalAlign=middle;whiteSpace=wrap;rounded=0;" parent="1" vertex="1">
          <mxGeometry x="110" y="-1380" width="240" height="30" as="geometry" />
        </mxCell>
        <mxCell id="1i18aTrX-dGXvnj4uuKa-6" value="manager-user" style="shape=umlActor;verticalLabelPosition=bottom;verticalAlign=top;html=1;outlineConnect=0;" parent="1" vertex="1">
          <mxGeometry x="800" y="-1200" width="30" height="60" as="geometry" />
        </mxCell>
        <mxCell id="1i18aTrX-dGXvnj4uuKa-10" value="CANCEL BOOKING" style="ellipse;whiteSpace=wrap;html=1;fillColor=#d5e8d4;strokeColor=#82b366;" parent="1" vertex="1">
          <mxGeometry x="430" y="-1140" width="140" height="30" as="geometry" />
        </mxCell>
        <mxCell id="1i18aTrX-dGXvnj4uuKa-12" value="BOOK ONLINE" style="ellipse;whiteSpace=wrap;html=1;fillColor=#d5e8d4;strokeColor=#82b366;" parent="1" vertex="1">
          <mxGeometry x="430" y="-1170" width="140" height="30" as="geometry" />
        </mxCell>
        <mxCell id="1i18aTrX-dGXvnj4uuKa-13" value="PAY ONLINE" style="ellipse;whiteSpace=wrap;html=1;fillColor=#e1d5e7;strokeColor=#9673a6;" parent="1" vertex="1">
          <mxGeometry x="430" y="-1110" width="140" height="30" as="geometry" />
        </mxCell>
        <mxCell id="1i18aTrX-dGXvnj4uuKa-14" value="LIST HOSTEL &amp;amp; ROOMS" style="ellipse;whiteSpace=wrap;html=1;fillColor=#e1d5e7;strokeColor=#9673a6;" parent="1" vertex="1">
          <mxGeometry x="430" y="-1080" width="140" height="30" as="geometry" />
        </mxCell>
        <mxCell id="1i18aTrX-dGXvnj4uuKa-16" value="GENERATE RECEIPT" style="ellipse;whiteSpace=wrap;html=1;fillColor=#e1d5e7;strokeColor=#9673a6;" parent="1" vertex="1">
          <mxGeometry x="430" y="-1050" width="140" height="30" as="geometry" />
        </mxCell>
        <mxCell id="1i18aTrX-dGXvnj4uuKa-20" value="EMAIL MESSAGE" style="ellipse;whiteSpace=wrap;html=1;fillColor=#ffe6cc;strokeColor=#d79b00;" parent="1" vertex="1">
          <mxGeometry x="430" y="-990" width="140" height="30" as="geometry" />
        </mxCell>
        <mxCell id="1i18aTrX-dGXvnj4uuKa-33" value="&lt;b&gt;SECONDARY ACTORS&lt;/b&gt;" style="text;html=1;align=center;verticalAlign=middle;whiteSpace=wrap;rounded=0;" parent="1" vertex="1">
          <mxGeometry x="650" y="-1380" width="270" height="30" as="geometry" />
        </mxCell>
        <mxCell id="1i18aTrX-dGXvnj4uuKa-34" value="&lt;b&gt;HOSTEL MANAGEMENT SYSTEM&amp;nbsp;&lt;/b&gt;" style="text;html=1;align=center;verticalAlign=middle;whiteSpace=wrap;rounded=0;" parent="1" vertex="1">
          <mxGeometry x="365" y="-1420" width="270" height="70" as="geometry" />
        </mxCell>
        <mxCell id="1i18aTrX-dGXvnj4uuKa-38" value="" style="endArrow=none;html=1;rounded=0;exitX=1;exitY=0.3333333333333333;exitDx=0;exitDy=0;exitPerimeter=0;" parent="1" source="1i18aTrX-dGXvnj4uuKa-4" edge="1">
          <mxGeometry width="50" height="50" relative="1" as="geometry">
            <mxPoint x="178" y="-1206" as="sourcePoint" />
            <mxPoint x="430" y="-1305" as="targetPoint" />
          </mxGeometry>
        </mxCell>
        <mxCell id="1i18aTrX-dGXvnj4uuKa-40" value="" style="endArrow=none;html=1;rounded=0;entryX=0;entryY=0.5;entryDx=0;entryDy=0;exitX=1;exitY=0.3333333333333333;exitDx=0;exitDy=0;exitPerimeter=0;" parent="1" source="1i18aTrX-dGXvnj4uuKa-4" target="1i18aTrX-dGXvnj4uuKa-8" edge="1">
          <mxGeometry width="50" height="50" relative="1" as="geometry">
            <mxPoint x="178" y="-1206" as="sourcePoint" />
            <mxPoint x="408" y="-1241" as="targetPoint" />
          </mxGeometry>
        </mxCell>
        <mxCell id="1i18aTrX-dGXvnj4uuKa-41" value="" style="endArrow=none;html=1;rounded=0;entryX=0;entryY=0.5;entryDx=0;entryDy=0;exitX=1;exitY=0.3333333333333333;exitDx=0;exitDy=0;exitPerimeter=0;" parent="1" source="1i18aTrX-dGXvnj4uuKa-4" target="1i18aTrX-dGXvnj4uuKa-7" edge="1">
          <mxGeometry width="50" height="50" relative="1" as="geometry">
            <mxPoint x="178" y="-1206" as="sourcePoint" />
            <mxPoint x="408" y="-1211" as="targetPoint" />
          </mxGeometry>
        </mxCell>
        <mxCell id="1i18aTrX-dGXvnj4uuKa-42" value="" style="endArrow=none;html=1;rounded=0;entryX=0;entryY=0.5;entryDx=0;entryDy=0;exitX=1;exitY=0.3333333333333333;exitDx=0;exitDy=0;exitPerimeter=0;" parent="1" source="1i18aTrX-dGXvnj4uuKa-4" target="1i18aTrX-dGXvnj4uuKa-9" edge="1">
          <mxGeometry width="50" height="50" relative="1" as="geometry">
            <mxPoint x="178" y="-1206" as="sourcePoint" />
            <mxPoint x="408" y="-1181" as="targetPoint" />
          </mxGeometry>
        </mxCell>
        <mxCell id="1i18aTrX-dGXvnj4uuKa-43" value="" style="endArrow=none;html=1;rounded=0;entryX=0;entryY=0.5;entryDx=0;entryDy=0;exitX=1;exitY=0.3333333333333333;exitDx=0;exitDy=0;exitPerimeter=0;" parent="1" source="1i18aTrX-dGXvnj4uuKa-4" target="1i18aTrX-dGXvnj4uuKa-12" edge="1">
          <mxGeometry width="50" height="50" relative="1" as="geometry">
            <mxPoint x="178" y="-1206" as="sourcePoint" />
            <mxPoint x="408" y="-1151" as="targetPoint" />
          </mxGeometry>
        </mxCell>
        <mxCell id="1i18aTrX-dGXvnj4uuKa-44" value="" style="endArrow=none;html=1;rounded=0;exitX=1;exitY=0.3333333333333333;exitDx=0;exitDy=0;exitPerimeter=0;entryX=0;entryY=0.5;entryDx=0;entryDy=0;" parent="1" source="1i18aTrX-dGXvnj4uuKa-4" target="1i18aTrX-dGXvnj4uuKa-10" edge="1">
          <mxGeometry width="50" height="50" relative="1" as="geometry">
            <mxPoint x="180" y="-1210" as="sourcePoint" />
            <mxPoint x="398" y="-1041" as="targetPoint" />
          </mxGeometry>
        </mxCell>
        <mxCell id="1i18aTrX-dGXvnj4uuKa-45" value="" style="endArrow=none;html=1;rounded=0;exitX=1;exitY=0.3333333333333333;exitDx=0;exitDy=0;exitPerimeter=0;entryX=0;entryY=0.5;entryDx=0;entryDy=0;" parent="1" source="1i18aTrX-dGXvnj4uuKa-4" target="1i18aTrX-dGXvnj4uuKa-13" edge="1">
          <mxGeometry width="50" height="50" relative="1" as="geometry">
            <mxPoint x="178" y="-1190" as="sourcePoint" />
            <mxPoint x="400" y="-1071" as="targetPoint" />
          </mxGeometry>
        </mxCell>
        <mxCell id="c_Erx3kCH4KepZ-svp7W-1" value="" style="endArrow=none;html=1;rounded=0;exitX=0;exitY=0.3333333333333333;exitDx=0;exitDy=0;exitPerimeter=0;entryX=1;entryY=0.5;entryDx=0;entryDy=0;" parent="1" source="1i18aTrX-dGXvnj4uuKa-6" edge="1" target="1i18aTrX-dGXvnj4uuKa-3">
          <mxGeometry width="50" height="50" relative="1" as="geometry">
            <mxPoint x="178" y="-1051" as="sourcePoint" />
            <mxPoint x="430" y="-1300" as="targetPoint" />
          </mxGeometry>
        </mxCell>
        <mxCell id="c_Erx3kCH4KepZ-svp7W-2" value="" style="endArrow=none;html=1;rounded=0;entryX=1;entryY=0.5;entryDx=0;entryDy=0;exitX=0;exitY=0.3333333333333333;exitDx=0;exitDy=0;exitPerimeter=0;" parent="1" source="1i18aTrX-dGXvnj4uuKa-6" target="1i18aTrX-dGXvnj4uuKa-8" edge="1">
          <mxGeometry width="50" height="50" relative="1" as="geometry">
            <mxPoint x="780" y="-1180" as="sourcePoint" />
            <mxPoint x="408" y="-1241" as="targetPoint" />
          </mxGeometry>
        </mxCell>
        <mxCell id="c_Erx3kCH4KepZ-svp7W-3" value="" style="endArrow=none;html=1;rounded=0;exitX=0;exitY=0.3333333333333333;exitDx=0;exitDy=0;exitPerimeter=0;entryX=1;entryY=0.5;entryDx=0;entryDy=0;" parent="1" source="1i18aTrX-dGXvnj4uuKa-6" target="1i18aTrX-dGXvnj4uuKa-7" edge="1">
          <mxGeometry width="50" height="50" relative="1" as="geometry">
            <mxPoint x="770" y="-1170" as="sourcePoint" />
            <mxPoint x="418" y="-1231" as="targetPoint" />
          </mxGeometry>
        </mxCell>
        <mxCell id="c_Erx3kCH4KepZ-svp7W-4" value="" style="endArrow=none;html=1;rounded=0;entryX=1;entryY=0.5;entryDx=0;entryDy=0;exitX=0;exitY=0.3333333333333333;exitDx=0;exitDy=0;exitPerimeter=0;" parent="1" source="1i18aTrX-dGXvnj4uuKa-6" target="1i18aTrX-dGXvnj4uuKa-14" edge="1">
          <mxGeometry width="50" height="50" relative="1" as="geometry">
            <mxPoint x="780" y="-1150" as="sourcePoint" />
            <mxPoint x="410" y="-1150" as="targetPoint" />
          </mxGeometry>
        </mxCell>
        <mxCell id="c_Erx3kCH4KepZ-svp7W-5" value="" style="endArrow=none;html=1;rounded=0;entryX=1;entryY=0.5;entryDx=0;entryDy=0;exitX=0;exitY=0.3333333333333333;exitDx=0;exitDy=0;exitPerimeter=0;" parent="1" source="1i18aTrX-dGXvnj4uuKa-6" target="1i18aTrX-dGXvnj4uuKa-16" edge="1">
          <mxGeometry width="50" height="50" relative="1" as="geometry">
            <mxPoint x="780" y="-1140" as="sourcePoint" />
            <mxPoint x="450" y="-1191" as="targetPoint" />
          </mxGeometry>
        </mxCell>
        <mxCell id="c_Erx3kCH4KepZ-svp7W-6" value="" style="endArrow=none;html=1;rounded=0;entryX=1;entryY=0.5;entryDx=0;entryDy=0;exitX=0;exitY=0.3333333333333333;exitDx=0;exitDy=0;exitPerimeter=0;" parent="1" source="1i18aTrX-dGXvnj4uuKa-6" target="1i18aTrX-dGXvnj4uuKa-15" edge="1">
          <mxGeometry width="50" height="50" relative="1" as="geometry">
            <mxPoint x="790" y="-1140" as="sourcePoint" />
            <mxPoint x="448" y="-1201" as="targetPoint" />
          </mxGeometry>
        </mxCell>
        <mxCell id="c_Erx3kCH4KepZ-svp7W-7" value="" style="endArrow=none;html=1;rounded=0;entryX=1;entryY=0.5;entryDx=0;entryDy=0;exitX=0;exitY=0.3333333333333333;exitDx=0;exitDy=0;exitPerimeter=0;" parent="1" source="1i18aTrX-dGXvnj4uuKa-6" target="1i18aTrX-dGXvnj4uuKa-20" edge="1">
          <mxGeometry width="50" height="50" relative="1" as="geometry">
            <mxPoint x="790" y="-1140" as="sourcePoint" />
            <mxPoint x="458" y="-1191" as="targetPoint" />
          </mxGeometry>
        </mxCell>
        <mxCell id="c_Erx3kCH4KepZ-svp7W-8" value="" style="endArrow=none;html=1;rounded=0;entryX=1;entryY=0.5;entryDx=0;entryDy=0;exitX=0;exitY=0.3333333333333333;exitDx=0;exitDy=0;exitPerimeter=0;" parent="1" source="1i18aTrX-dGXvnj4uuKa-6" target="1i18aTrX-dGXvnj4uuKa-21" edge="1">
          <mxGeometry width="50" height="50" relative="1" as="geometry">
            <mxPoint x="790" y="-1140" as="sourcePoint" />
            <mxPoint x="468" y="-1181" as="targetPoint" />
          </mxGeometry>
        </mxCell>
        <mxCell id="1i18aTrX-dGXvnj4uuKa-8" value="LOGIN" style="ellipse;whiteSpace=wrap;html=1;fillColor=#d5e8d4;strokeColor=#82b366;" parent="1" vertex="1">
          <mxGeometry x="430" y="-1290" width="140" height="30" as="geometry" />
        </mxCell>
        <mxCell id="1i18aTrX-dGXvnj4uuKa-7" value="RESET PASSWORD" style="ellipse;whiteSpace=wrap;html=1;fillColor=#d5e8d4;strokeColor=#82b366;" parent="1" vertex="1">
          <mxGeometry x="430" y="-1260" width="140" height="30" as="geometry" />
        </mxCell>
        <mxCell id="1i18aTrX-dGXvnj4uuKa-9" value="&lt;font style=&quot;font-size: 12px;&quot;&gt;VIEW-HOSTEL &amp;amp; ROOMS&lt;/font&gt;" style="ellipse;whiteSpace=wrap;html=1;fillColor=#d5e8d4;strokeColor=#82b366;" parent="1" vertex="1">
          <mxGeometry x="422.5" y="-1200" width="155" height="30" as="geometry" />
        </mxCell>
        <mxCell id="pQgBOYy_WANg3tkyuGHI-1" value="LOG OUT" style="ellipse;whiteSpace=wrap;html=1;fillColor=#d5e8d4;strokeColor=#82b366;" parent="1" vertex="1">
          <mxGeometry x="430" y="-1230" width="140" height="30" as="geometry" />
        </mxCell>
        <mxCell id="pQgBOYy_WANg3tkyuGHI-5" value="" style="swimlane;startSize=0;direction=south;" parent="1" vertex="1">
          <mxGeometry x="320" y="-1350" width="360" height="450" as="geometry" />
        </mxCell>
        <mxCell id="pQgBOYy_WANg3tkyuGHI-8" value="" style="endArrow=none;html=1;rounded=0;entryX=0;entryY=0.5;entryDx=0;entryDy=0;" parent="pQgBOYy_WANg3tkyuGHI-5" edge="1" target="1i18aTrX-dGXvnj4uuKa-20">
          <mxGeometry width="50" height="50" relative="1" as="geometry">
            <mxPoint x="-110" y="110" as="sourcePoint" />
            <mxPoint x="110" y="375" as="targetPoint" />
          </mxGeometry>
        </mxCell>
        <mxCell id="1i18aTrX-dGXvnj4uuKa-21" value="DASHBOARD" style="ellipse;whiteSpace=wrap;html=1;fillColor=#ffe6cc;strokeColor=#d79b00;" parent="pQgBOYy_WANg3tkyuGHI-5" vertex="1">
          <mxGeometry x="110" y="390" width="140" height="30" as="geometry" />
        </mxCell>
        <mxCell id="1i18aTrX-dGXvnj4uuKa-15" value="GENERATE REPORT" style="ellipse;whiteSpace=wrap;html=1;fillColor=#e1d5e7;strokeColor=#9673a6;" parent="pQgBOYy_WANg3tkyuGHI-5" vertex="1">
          <mxGeometry x="110" y="330" width="140" height="30" as="geometry" />
        </mxCell>
        <mxCell id="pQgBOYy_WANg3tkyuGHI-7" value="" style="endArrow=none;html=1;rounded=0;entryX=0;entryY=0.5;entryDx=0;entryDy=0;" parent="1" target="1i18aTrX-dGXvnj4uuKa-16" edge="1">
          <mxGeometry width="50" height="50" relative="1" as="geometry">
            <mxPoint x="210" y="-1240" as="sourcePoint" />
            <mxPoint x="440" y="-1085" as="targetPoint" />
          </mxGeometry>
        </mxCell>
        <mxCell id="K-eQ4VImcXwig3O87pvX-1" value="" style="endArrow=none;html=1;rounded=0;exitX=0;exitY=0.3333333333333333;exitDx=0;exitDy=0;exitPerimeter=0;entryX=1;entryY=0.5;entryDx=0;entryDy=0;" parent="1" source="1i18aTrX-dGXvnj4uuKa-6" target="pQgBOYy_WANg3tkyuGHI-1" edge="1">
          <mxGeometry width="50" height="50" relative="1" as="geometry">
            <mxPoint x="770" y="-1160" as="sourcePoint" />
            <mxPoint x="570" y="-1185" as="targetPoint" />
          </mxGeometry>
        </mxCell>
        <mxCell id="W1dqsC0GR9jQXq01Xn9P-6" value="" style="endArrow=none;html=1;rounded=0;exitX=1;exitY=0.3333333333333333;exitDx=0;exitDy=0;exitPerimeter=0;entryX=0;entryY=0.5;entryDx=0;entryDy=0;" edge="1" parent="1" source="1i18aTrX-dGXvnj4uuKa-4" target="pQgBOYy_WANg3tkyuGHI-1">
          <mxGeometry width="50" height="50" relative="1" as="geometry">
            <mxPoint x="218" y="-1230" as="sourcePoint" />
            <mxPoint x="440" y="-1295" as="targetPoint" />
          </mxGeometry>
        </mxCell>
        <mxCell id="W1dqsC0GR9jQXq01Xn9P-7" value="" style="endArrow=none;html=1;rounded=0;exitX=0;exitY=0.3333333333333333;exitDx=0;exitDy=0;exitPerimeter=0;entryX=1;entryY=0.5;entryDx=0;entryDy=0;" edge="1" parent="1" source="1i18aTrX-dGXvnj4uuKa-6" target="1i18aTrX-dGXvnj4uuKa-9">
          <mxGeometry width="50" height="50" relative="1" as="geometry">
            <mxPoint x="810" y="-1170" as="sourcePoint" />
            <mxPoint x="580" y="-1205" as="targetPoint" />
          </mxGeometry>
        </mxCell>
      </root>
    </mxGraphModel>
  </diagram>
</mxfile>
